<?xml version="1.0" encoding="UTF-8"?>
<svg id="Laag_2" data-name="Laag 2" xmlns="http://www.w3.org/2000/svg" viewBox="0 0 87.38 96.6">
  <defs>
    <style>
      .cls-1 {
        fill: #fff;
      }
    </style>
  </defs>
  <g id="Laag_4" data-name="Laag 4">
    <path class="cls-1" d="M87.38,52.82c0-6.24-3.4-11.66-8.39-14.58h-.03l-5.02,4.78-.06-43.02h-14.96l-15.21,25.03L28.48,0h-14.96l-.07,43.02-5.03-4.78C3.38,41.17,0,46.6,0,52.85s3.36,11.64,8.37,14.58c-.34,1.32-.52,2.69-.52,4.12,0,9.34,7.57,16.9,16.9,16.9,1.44,0,2.84-.19,4.17-.53,2.9,5.17,8.42,8.67,14.76,8.67s11.89-3.51,14.77-8.69c1.34.34,2.74.53,4.16.53,9.34,0,16.91-7.57,16.91-16.92,0-1.42-.19-2.8-.53-4.12,5.01-2.93,8.39-8.36,8.39-14.58ZM65.67,67.4l-10.98-6.78-5.47,17.03c-.34,1.13-1.39,1.86-2.55,1.86h-5.98c-1.17,0-2.2-.73-2.55-1.86l-5.46-17.03-10.98,6.78,2.68-14.58h-6.94l5.3-9.8V8.73s15.93,25.62,15.93,25.62h10.04l15.87-25.59v34.27l5.36,9.79h-6.96l2.69,14.58Z"/>
  </g>
</svg>