<?xml version="1.0" encoding="UTF-8"?>
<svg id="Laag_2" data-name="Laag 2" xmlns="http://www.w3.org/2000/svg" viewBox="0 0 334.43 75.39">
  <defs>
    <style>
      .cls-1 {
        fill: #b984ff;
      }
    </style>
  </defs>
  <g id="Laag_4" data-name="Laag 4">
    <g>
      <path class="cls-1" d="M29.6,2.17C26.69.72,23.3,0,19.42,0c-3.87,0-7.27.72-10.18,2.17-2.91,1.45-5.18,3.47-6.81,6.05C.81,10.81,0,13.83,0,17.29s.81,6.48,2.44,9.07c1.63,2.59,3.89,4.6,6.81,6.05,2.91,1.45,6.3,2.17,10.18,2.17,3.87,0,7.27-.72,10.18-2.17,2.91-1.45,5.18-3.47,6.81-6.05,1.63-2.59,2.44-5.61,2.44-9.07s-.81-6.48-2.44-9.07c-1.63-2.59-3.89-4.6-6.81-6.05ZM29.78,22.93c-.96,1.6-2.32,2.82-4.08,3.68-1.76.86-3.85,1.29-6.28,1.29s-4.48-.43-6.25-1.29c-1.77-.86-3.14-2.08-4.1-3.68-.96-1.6-1.44-3.47-1.44-5.63s.48-4.04,1.44-5.63c.96-1.6,2.33-2.82,4.1-3.68s3.86-1.29,6.25-1.29,4.52.43,6.28,1.29c1.76.86,3.12,2.08,4.08,3.68.96,1.6,1.44,3.47,1.44,5.63s-.48,4.04-1.44,5.63Z"/>
      <polygon class="cls-1" points="44.03 33.92 51.57 33.92 51.57 21.2 71.7 21.2 71.7 14.77 51.57 14.77 51.57 7.14 72.46 7.14 72.46 .66 44.03 .66 44.03 33.92"/>
      <polygon class="cls-1" points="77.51 33.92 85.05 33.92 85.05 21.2 105.18 21.2 105.18 14.77 85.05 14.77 85.05 7.14 105.94 7.14 105.94 .66 77.51 .66 77.51 33.92"/>
      <polygon class="cls-1" points="119.28 20.18 138.49 20.18 138.49 14.41 119.28 14.41 118.1 6.92 139.64 6.92 139.64 .66 109.93 .66 112.5 17.29 109.93 33.92 139.86 33.92 139.86 27.67 118.1 27.67 119.28 20.18"/>
      <polygon class="cls-1" points="173.78 25.44 155.34 .66 145.58 .66 145.58 33.92 152.85 33.92 152.85 8.7 171.57 33.92 181.1 33.92 181.1 .66 173.78 .66 173.78 25.44"/>
      <path class="cls-1" d="M214.25,15.99c-1.82-.72-4.26-1.25-7.34-1.57l-6.96-.84c-2.13-.27-3.61-.67-4.46-1.22-.84-.55-1.26-1.32-1.26-2.33,0-1.3.71-2.31,2.13-3.01,1.42-.71,3.33-1.06,5.72-1.06,1.71,0,3.21.2,4.48.6,1.27.4,2.27.96,2.99,1.69.72.73,1.16,1.57,1.31,2.55h7.63c-.12-2.16-.89-4.04-2.31-5.65-1.42-1.61-3.33-2.87-5.72-3.77C208.06.45,205.33,0,202.25,0c-3.16,0-5.91.41-8.25,1.22-2.34.81-4.15,1.99-5.43,3.53-1.29,1.54-1.93,3.4-1.93,5.59,0,2.78.97,4.94,2.9,6.5,1.94,1.55,5.06,2.56,9.38,3.04l6.7.75c2.36.27,3.98.69,4.86,1.26.87.58,1.31,1.4,1.31,2.46,0,1.36-.76,2.42-2.28,3.17-1.52.75-3.6,1.13-6.23,1.13-1.8,0-3.39-.23-4.77-.69-1.37-.46-2.47-1.11-3.28-1.95-.81-.84-1.31-1.83-1.49-2.95h-7.63c.12,2.31.9,4.32,2.35,6.05,1.45,1.73,3.43,3.08,5.94,4.04,2.51.96,5.42,1.44,8.74,1.44,3.25,0,6.09-.46,8.51-1.38,2.42-.92,4.31-2.21,5.65-3.88,1.35-1.67,2.02-3.61,2.02-5.83,0-1.86-.39-3.4-1.18-4.61-.78-1.21-2.08-2.18-3.9-2.9Z"/>
      <rect class="cls-1" x="224.38" y=".66" width="7.54" height="33.26"/>
      <path class="cls-1" d="M268.86,27.51c1.36-2.23,2.04-4.84,2.04-7.83V.66h-7.54s0,18.67,0,18.67c0,1.77-.34,3.3-1.02,4.57-.68,1.27-1.67,2.25-2.97,2.95-1.3.7-2.9,1.04-4.79,1.04-1.86,0-3.45-.35-4.77-1.04-1.32-.69-2.31-1.68-2.99-2.95-.68-1.27-1.02-2.79-1.02-4.57V.66h-7.54s0,19.02,0,19.02c0,2.99.69,5.6,2.06,7.83,1.38,2.23,3.28,3.97,5.72,5.21,2.44,1.24,5.28,1.86,8.54,1.86,3.25,0,6.1-.62,8.56-1.86,2.45-1.24,4.36-2.98,5.72-5.21Z"/>
      <path class="cls-1" d="M334.43,41.52c0-4.82-2.63-9.02-6.49-11.28h-.02s-3.89,3.7-3.89,3.7l-.04-33.27h-11.57s-11.77,19.36-11.77,19.36l-11.78-19.36h-11.57s-.06,33.27-.06,33.27l-3.89-3.7c-3.89,2.27-6.51,6.47-6.51,11.31s2.6,9,6.47,11.28c-.26,1.02-.4,2.09-.4,3.19,0,7.22,5.85,13.07,13.07,13.07,1.11,0,2.19-.15,3.22-.41,2.25,4,6.51,6.71,11.42,6.71,4.92,0,9.2-2.71,11.42-6.73,1.04.26,2.12.41,3.22.41,7.23,0,13.08-5.85,13.08-13.08,0-1.1-.15-2.17-.41-3.19,3.88-2.27,6.49-6.47,6.49-11.28ZM317.63,52.81l-8.49-5.24-4.23,13.17c-.27.87-1.07,1.44-1.98,1.44h-4.62c-.9,0-1.7-.57-1.98-1.44l-4.22-13.17-8.49,5.24,2.07-11.28h-5.37s4.1-7.58,4.1-7.58V7.42s12.33,19.82,12.33,19.82h7.76s12.28-19.8,12.28-19.8v26.51s4.14,7.57,4.14,7.57h-5.39s2.08,11.28,2.08,11.28Z"/>
    </g>
  </g>
</svg>