<?xml version="1.0" encoding="UTF-8"?>
<svg id="Laag_2" data-name="Laag 2" xmlns="http://www.w3.org/2000/svg" viewBox="0 0 1127.55 961.91">
  <defs>
    <style>
      .cls-1 {
        fill: #9ef000;
      }
    </style>
  </defs>
  <g id="Laag_4" data-name="Laag 4">
    <g>
      <polygon class="cls-1" points="90.62 911.33 26.8 911.33 0 961.91 108.33 961.91 366.93 819.92 283.75 737.66 90.62 911.33"/>
      <path class="cls-1" d="M134.08,505.92c-20.91-15.23-46.22-23.22-72.08-22.76l-16.4.29,61.32,39.25,27.16-16.78Z"/>
      <path class="cls-1" d="M1127.55,213.65h0c-36.59-46.26-85.99-80.73-142.04-99.11l-4.05-1.33,89.48-42-40.73-14.34c-56.25-19.81-118.43-13.2-169.26,17.99L884.15,0h-64.3c-24.01,0-45.91,13.72-56.38,35.33h0c-25.44,52.49,6.46,114.74,63.93,124.75l51.4,8.95c34.59,6.02,62.26,32.08,70.35,66.24,8.65,36.51-6.87,74.48-38.61,94.48l-14.53,9.16c-5.52-30.26-31.96-53.21-63.81-53.21-10.76,0-20.88,2.66-29.81,7.29-11.54-18.01-31.68-29.98-54.66-29.98-21.76,0-40.97,10.74-52.75,27.17-10.93-8.36-24.54-13.38-39.36-13.38-33.23,0-60.59,24.98-64.42,57.19-8.3-3.85-17.51-6.06-27.26-6.06-32.12,0-58.73,23.35-63.93,53.99-6.93-2.52-14.37-3.97-22.17-3.97-31.63,0-57.95,22.63-63.72,52.58-8.87-4.54-18.88-7.15-29.53-7.15-35.86,0-64.92,29.07-64.92,64.92,0,1.1.11,2.17.16,3.26l-91.18-2.89c-23.9-31.64-62.17-49.42-102.08-46.96l-19.06,1.17,53.07,71.74-45.53,25.18-7.54,56.66L0,674.56l52.46,48.09,167.29-40.91,97.79,21.99,165.54,203.46h-54.47l-12.88,54.72h147.84l-36.56-171.12c2.51.29,5.04.49,7.63.49,30.56,0,56.12-21.15,63.03-49.59,9.26,5.08,19.89,7.99,31.2,7.99,17.32,0,33.02-6.83,44.67-17.89l73.9,90.06-31.12,77.81h-45.67l-26.19,62.25h102.98l81.7-155.62-66.99-123.39c12.48-.65,24.03-4.78,33.67-11.51l111.12,154.36-27.23,73.92h-46.68l-35.01,62.25h117.22l64.08-136.17-38.82-229.44c10.2-11.47,16.45-26.53,16.45-43.08,0-9.24-1.96-18.02-5.44-25.98,12.29-11.81,19.97-28.38,19.97-46.78,0-24.1-13.16-45.08-32.66-56.29l86.08-56.39,44.56,76.97,14.87-30.55c30.1-61.83,26.44-134.76-9.7-193.26l52.96-7.3Z"/>
    </g>
  </g>
</svg>